<svg width="192" height="192" viewBox="0 0 192 192" fill="none" xmlns="http://www.w3.org/2000/svg">
  <rect width="192" height="192" rx="24" fill="url(#gradient)"/>
  <defs>
    <linearGradient id="gradient" x1="0%" y1="0%" x2="100%" y2="100%">
      <stop offset="0%" style="stop-color:#667eea"/>
      <stop offset="100%" style="stop-color:#764ba2"/>
    </linearGradient>
  </defs>
  
  <!-- Bus Icon -->
  <g transform="translate(48, 48)">
    <!-- Bus Body -->
    <rect x="12" y="24" width="72" height="48" rx="8" fill="white" stroke="none"/>
    
    <!-- Windows -->
    <rect x="18" y="30" width="14" height="12" rx="2" fill="#667eea"/>
    <rect x="36" y="30" width="14" height="12" rx="2" fill="#667eea"/>
    <rect x="54" y="30" width="14" height="12" rx="2" fill="#667eea"/>
    
    <!-- Door -->
    <rect x="72" y="42" width="8" height="24" rx="1" fill="#764ba2"/>
    
    <!-- Wheels -->
    <circle cx="24" cy="78" r="6" fill="#333"/>
    <circle cx="24" cy="78" r="3" fill="#666"/>
    <circle cx="72" cy="78" r="6" fill="#333"/>
    <circle cx="72" cy="78" r="3" fill="#666"/>
    
    <!-- Route Line -->
    <line x1="12" y1="90" x2="84" y2="90" stroke="white" stroke-width="2" stroke-dasharray="4,2"/>
    
    <!-- Stop Indicators -->
    <circle cx="18" cy="90" r="3" fill="white"/>
    <circle cx="48" cy="90" r="3" fill="#ffd700"/>
    <circle cx="78" cy="90" r="3" fill="white"/>
  </g>
</svg>
